<svg width="320" height="128" viewBox="0 0 320 128" fill="none" xmlns="http://www.w3.org/2000/svg">
<path d="M53.184 91.712C53.184 95.36 53.408 99.456 53.856 104C49.504 103.808 42.176 103.712 31.872 103.712C19.584 103.712 10.304 103.808 4.032 104V102.08C6.336 101.952 8 101.696 9.024 101.312C10.112 100.928 10.848 100.192 11.232 99.104C11.616 98.016 11.808 96.256 11.808 93.824V46.208C11.808 43.776 11.616 42.016 11.232 40.928C10.848 39.84 10.112 39.104 9.024 38.72C8 38.336 6.336 38.08 4.032 37.952V36.032C10.304 36.224 19.584 36.32 31.872 36.32C41.28 36.32 47.968 36.224 51.936 36.032C51.488 40.256 51.264 44.032 51.264 47.36C51.264 49.856 51.36 51.84 51.552 53.312H49.344C48.896 49.152 48.32 46.08 47.616 44.096C46.912 42.048 45.728 40.576 44.064 39.68C42.4 38.72 39.872 38.24 36.48 38.24H28.512C26.208 38.24 24.512 38.432 23.424 38.816C22.4 39.136 21.696 39.84 21.312 40.928C20.928 42.016 20.736 43.776 20.736 46.208V68.864H27.072C29.312 68.864 31.04 68.352 32.256 67.328C33.472 66.24 34.272 64.992 34.656 63.584C35.104 62.112 35.456 60.288 35.712 58.112L36 56.192H38.208C38.016 58.88 37.92 61.888 37.92 65.216V69.824C37.92 73.088 38.112 77.632 38.496 83.456H36.288C36.224 83.008 36.032 81.472 35.712 78.848C35.392 76.16 34.496 74.144 33.024 72.8C31.616 71.456 29.632 70.784 27.072 70.784H20.736V93.824C20.736 96.256 20.928 98.016 21.312 99.104C21.696 100.192 22.4 100.928 23.424 101.312C24.512 101.632 26.208 101.792 28.512 101.792H35.52C39.488 101.792 42.496 101.28 44.544 100.256C46.656 99.168 48.192 97.472 49.152 95.168C50.112 92.8 50.816 89.344 51.264 84.8H53.472C53.28 86.528 53.184 88.832 53.184 91.712ZM39.648 15.104C40.672 14.464 41.632 14.144 42.528 14.144C43.744 14.144 44.736 14.688 45.504 15.776C45.888 16.352 46.08 16.96 46.08 17.6C46.08 19.008 45.216 20.256 43.488 21.344C42.144 22.176 39.84 23.2 36.576 24.416C31.776 26.336 27.648 28.16 24.192 29.888L23.52 28.64C26.144 26.656 28.384 24.832 30.24 23.168C32.16 21.44 33.344 20.384 33.792 20C36.16 17.76 38.112 16.128 39.648 15.104ZM93.444 72.896C100.1 73.728 104.868 75.552 107.748 78.368C110.628 81.12 112.068 84.416 112.068 88.256C112.068 91.328 111.172 94.048 109.38 96.416C107.652 98.784 105.124 100.64 101.796 101.984C98.468 103.328 94.532 104 89.988 104C88.388 104 87.012 103.968 85.86 103.904C81.892 103.776 78.084 103.712 74.436 103.712C69.188 103.712 65.22 103.808 62.532 104V102.08C64.836 101.952 66.5 101.696 67.524 101.312C68.612 100.928 69.348 100.192 69.732 99.104C70.116 98.016 70.308 96.256 70.308 93.824V55.808C70.308 53.376 70.116 51.616 69.732 50.528C69.348 49.44 68.612 48.704 67.524 48.32C66.5 47.936 64.836 47.68 62.532 47.552V45.632C65.22 45.824 69.124 45.92 74.244 45.92L84.036 45.824C85.124 45.76 86.372 45.728 87.78 45.728C93.988 45.728 98.756 46.944 102.084 49.376C105.412 51.744 107.076 54.912 107.076 58.88C107.076 61.952 105.988 64.704 103.812 67.136C101.636 69.568 98.18 71.424 93.444 72.704V72.896ZM85.38 47.552C83.652 47.552 82.34 47.776 81.444 48.224C80.612 48.672 80.036 49.472 79.716 50.624C79.396 51.776 79.236 53.504 79.236 55.808V72.704H84.708C89.636 72.704 93.06 71.584 94.98 69.344C96.9 67.104 97.86 63.968 97.86 59.936C97.86 55.776 96.868 52.672 94.884 50.624C92.9 48.576 89.732 47.552 85.38 47.552ZM85.476 101.792C91.3 101.792 95.588 100.64 98.34 98.336C101.092 95.968 102.468 92.48 102.468 87.872C102.468 83.392 101.188 80.032 98.628 77.792C96.068 75.488 91.972 74.336 86.34 74.336H79.236V93.824C79.236 96.128 79.396 97.824 79.716 98.912C80.036 100 80.612 100.768 81.444 101.216C82.34 101.6 83.684 101.792 85.476 101.792ZM168.581 95.936C170.309 99.904 172.517 101.952 175.205 102.08V104C172.645 103.808 169.221 103.712 164.933 103.712C159.429 103.712 155.333 103.808 152.645 104V102.08C155.013 101.952 156.741 101.632 157.829 101.12C158.981 100.608 159.557 99.744 159.557 98.528C159.557 97.504 159.109 96 158.213 94.016L153.317 83.072H129.989L126.725 90.272C125.637 92.768 125.093 94.816 125.093 96.416C125.093 98.08 125.669 99.392 126.821 100.352C128.037 101.248 129.957 101.824 132.581 102.08V104C130.661 103.808 127.749 103.712 123.845 103.712C119.941 103.712 117.157 103.808 115.493 104V102.08C117.221 101.632 118.693 100.672 119.909 99.2C121.125 97.664 122.277 95.648 123.365 93.152L144.581 45.152H146.117L168.581 95.936ZM152.549 81.152L141.701 56.768L130.757 81.152H152.549ZM237.338 47.552C235.098 47.68 233.434 48.032 232.346 48.608C231.258 49.12 230.522 50.016 230.138 51.296C229.754 52.512 229.562 54.336 229.562 56.768V104.48H227.354L188.954 51.296V92.864C188.954 95.36 189.146 97.216 189.53 98.432C189.978 99.648 190.81 100.544 192.026 101.12C193.242 101.632 195.13 101.952 197.69 102.08V104C195.386 103.808 192.122 103.712 187.898 103.712C184.058 103.712 181.082 103.808 178.97 104V102.08C181.21 101.952 182.874 101.632 183.962 101.12C185.05 100.544 185.786 99.648 186.17 98.432C186.554 97.152 186.746 95.296 186.746 92.864V55.808C186.746 53.376 186.554 51.616 186.17 50.528C185.786 49.44 185.05 48.704 183.962 48.32C182.938 47.936 181.274 47.68 178.97 47.552V45.632C181.082 45.824 184.058 45.92 187.898 45.92C191.354 45.92 194.298 45.824 196.73 45.632L227.354 88.256V56.768C227.354 54.272 227.13 52.416 226.682 51.2C226.298 49.984 225.498 49.12 224.281 48.608C223.066 48.032 221.178 47.68 218.618 47.552V45.632C220.922 45.824 224.186 45.92 228.41 45.92C232.25 45.92 235.226 45.824 237.338 45.632V47.552ZM274.187 44.288C280.075 44.288 285.227 45.472 289.643 47.84C294.123 50.144 297.579 53.568 300.011 58.112C302.443 62.592 303.659 67.968 303.659 74.24C303.659 80.384 302.379 85.824 299.819 90.56C297.323 95.232 293.835 98.88 289.355 101.504C284.875 104.064 279.787 105.344 274.091 105.344C268.203 105.344 263.019 104.192 258.539 101.888C254.123 99.52 250.699 96.096 248.267 91.616C245.835 87.072 244.619 81.664 244.619 75.392C244.619 69.248 245.867 63.84 248.363 59.168C250.923 54.432 254.443 50.784 258.923 48.224C263.403 45.6 268.491 44.288 274.187 44.288ZM273.803 46.016C269.899 46.016 266.443 47.264 263.435 49.76C260.491 52.192 258.219 55.616 256.619 60.032C255.019 64.384 254.219 69.376 254.219 75.008C254.219 80.704 255.115 85.728 256.907 90.08C258.699 94.432 261.131 97.792 264.203 100.16C267.275 102.464 270.699 103.616 274.475 103.616C278.379 103.616 281.803 102.4 284.747 99.968C287.755 97.472 290.059 94.048 291.659 89.696C293.259 85.28 294.059 80.256 294.059 74.624C294.059 68.928 293.163 63.904 291.371 59.552C289.579 55.2 287.147 51.872 284.075 49.568C281.003 47.2 277.579 46.016 273.803 46.016Z" fill="#9F5650"/>
<path d="M67.9993 35.9921H297.999" stroke="#9F5650" stroke-width="2"/>
</svg>
