<svg width="50" height="90" viewBox="0 0 50 90" fill="none" xmlns="http://www.w3.org/2000/svg">
<path d="M49.184 77.712C49.184 81.36 49.408 85.456 49.856 90C45.504 89.808 38.176 89.712 27.872 89.712C15.584 89.712 6.304 89.808 0.0320003 90V88.08C2.336 87.952 4 87.696 5.024 87.312C6.112 86.928 6.848 86.192 7.232 85.104C7.616 84.016 7.808 82.256 7.808 79.824V32.208C7.808 29.776 7.616 28.016 7.232 26.928C6.848 25.84 6.112 25.104 5.024 24.72C4 24.336 2.336 24.08 0.0320003 23.952V22.032C6.304 22.224 15.584 22.32 27.872 22.32C37.28 22.32 43.968 22.224 47.936 22.032C47.488 26.256 47.264 30.032 47.264 33.36C47.264 35.856 47.36 37.84 47.552 39.312H45.344C44.896 35.152 44.32 32.08 43.616 30.096C42.912 28.048 41.728 26.576 40.064 25.68C38.4 24.72 35.872 24.24 32.48 24.24H24.512C22.208 24.24 20.512 24.432 19.424 24.816C18.4 25.136 17.696 25.84 17.312 26.928C16.928 28.016 16.736 29.776 16.736 32.208V54.864H23.072C25.312 54.864 27.04 54.352 28.256 53.328C29.472 52.24 30.272 50.992 30.656 49.584C31.104 48.112 31.456 46.288 31.712 44.112L32 42.192H34.208C34.016 44.88 33.92 47.888 33.92 51.216V55.824C33.92 59.088 34.112 63.632 34.496 69.456H32.288C32.224 69.008 32.032 67.472 31.712 64.848C31.392 62.16 30.496 60.144 29.024 58.8C27.616 57.456 25.632 56.784 23.072 56.784H16.736V79.824C16.736 82.256 16.928 84.016 17.312 85.104C17.696 86.192 18.4 86.928 19.424 87.312C20.512 87.632 22.208 87.792 24.512 87.792H31.52C35.488 87.792 38.496 87.28 40.544 86.256C42.656 85.168 44.192 83.472 45.152 81.168C46.112 78.8 46.816 75.344 47.264 70.8H49.472C49.28 72.528 49.184 74.832 49.184 77.712ZM35.648 1.10399C36.672 0.463995 37.632 0.143995 38.528 0.143995C39.744 0.143995 40.736 0.687996 41.504 1.776C41.888 2.352 42.08 2.96 42.08 3.6C42.08 5.008 41.216 6.256 39.488 7.34399C38.144 8.17599 35.84 9.2 32.576 10.416C27.776 12.336 23.648 14.16 20.192 15.888L19.52 14.64C22.144 12.656 24.384 10.832 26.24 9.16799C28.16 7.44 29.344 6.384 29.792 5.99999C32.16 3.76 34.112 2.128 35.648 1.10399Z" fill="#9F5650"/>
</svg>
